<svg width="71" height="89" viewBox="0 0 71 89" fill="none" xmlns="http://www.w3.org/2000/svg">
<path d="M35.5 88.25C25.3646 85.6979 16.9981 79.8821 10.4006 70.8025C3.80021 61.7258 0.5 51.6458 0.5 40.5625V13.875L35.5 0.75L70.5 13.875V40.5625C70.5 51.6458 67.2013 61.7258 60.6038 70.8025C54.0033 79.8821 45.6354 85.6979 35.5 88.25ZM35.5 79.0625C43.0833 76.6562 49.3542 71.8438 54.3125 64.625C59.2708 57.4062 61.75 49.3854 61.75 40.5625V19.8906L35.5 10.0469L9.25 19.8906V40.5625C9.25 49.3854 11.7292 57.4062 16.6875 64.625C21.6458 71.8438 27.9167 76.6562 35.5 79.0625Z" fill="black"/>
</svg>
